<?xml version="1.0" standalone="no"?>
<!DOCTYPE svg PUBLIC "-//W3C//DTD SVG 20010904//EN"
 "http://www.w3.org/TR/2001/REC-SVG-20010904/DTD/svg10.dtd">
<svg version="1.0" xmlns="http://www.w3.org/2000/svg"
 width="801.000000pt" height="495.000000pt" viewBox="0 0 801.000000 495.000000"
 preserveAspectRatio="xMidYMid meet">
<metadata>
Created by potrace 1.11, written by Peter Selinger 2001-2013
</metadata>
<g transform="translate(0.000000,495.000000) scale(0.100000,-0.100000)"
fill="#000000" stroke="none">
<path d="M2980 3641 c0 -5 79 -170 175 -367 96 -197 173 -359 171 -361 -2 -3
-1062 467 -1086 482 -12 8 -104 -126 -151 -221 -39 -78 -41 -86 -46 -201 -14
-291 57 -468 265 -664 203 -192 427 -318 681 -387 91 -24 108 -26 356 -26 228
0 276 3 390 23 226 40 400 108 503 197 52 45 212 283 243 362 18 46 22 76 22
157 -1 55 -6 123 -12 150 -43 181 -257 453 -476 605 -192 132 -355 180 -830
241 -167 21 -205 23 -205 10z m334 -47 c204 -30 339 -57 425 -85 144 -46 285
-135 426 -271 285 -272 388 -555 284 -778 -45 -97 -172 -282 -226 -330 -100
-87 -295 -162 -515 -197 -143 -22 -569 -26 -663 -5 -262 58 -517 198 -728 402
-117 113 -180 203 -221 319 -30 83 -31 91 -31 261 0 162 2 179 23 225 26 56
141 235 151 235 4 0 234 -102 512 -226 277 -124 509 -228 515 -230 6 -3 10
-19 10 -37 0 -18 2 -38 4 -46 3 -9 -106 -91 -327 -245 -290 -202 -370 -262
-320 -243 7 2 162 109 345 236 l331 231 61 -7 c33 -3 65 -12 72 -20 6 -8 87
-157 179 -331 92 -174 172 -318 179 -320 14 -5 -12 46 -193 387 -139 262 -140
265 -142 333 0 41 3 68 10 68 45 -1 754 73 770 80 17 7 16 9 -10 9 -16 1 -187
-15 -380 -34 -412 -41 -409 -41 -435 -15 -13 13 -33 20 -60 20 l-41 0 -149
305 c-82 168 -152 315 -156 327 -6 20 -4 20 62 14 38 -4 145 -19 238 -32z"/>
</g>
</svg>
