<?xml version="1.0" standalone="no"?>
<!DOCTYPE svg PUBLIC "-//W3C//DTD SVG 20010904//EN"
 "http://www.w3.org/TR/2001/REC-SVG-20010904/DTD/svg10.dtd">
<svg version="1.0" xmlns="http://www.w3.org/2000/svg"
 width="801.000000pt" height="495.000000pt" viewBox="0 0 801.000000 495.000000"
 preserveAspectRatio="xMidYMid meet">
<metadata>
Created by potrace 1.11, written by Peter Selinger 2001-2013
</metadata>
<g transform="translate(0.000000,495.000000) scale(0.100000,-0.100000)"
fill="#000000" stroke="none">
<path d="M4135 3933 c-858 -184 -1583 -341 -1610 -349 -138 -37 -248 -176
-319 -402 -79 -251 -87 -595 -21 -858 90 -355 271 -536 470 -468 25 8 224 58
443 110 1610 385 2703 644 2713 644 27 0 153 96 189 144 216 287 254 862 79
1226 -53 111 -108 181 -180 229 -54 36 -84 46 -174 56 -16 2 -732 -148 -1590
-332z m1724 288 c311 -162 423 -896 204 -1336 -71 -142 -138 -211 -246 -250
-34 -13 -501 -127 -1037 -255 -536 -128 -1216 -290 -1510 -360 -294 -70 -536
-127 -538 -126 -1 2 16 21 37 44 177 186 268 610 216 1004 -41 314 -162 551
-317 623 -32 15 -46 26 -37 29 7 3 541 118 1184 255 644 138 1323 284 1510
324 385 83 454 90 534 48z m-3222 -654 c152 -57 275 -269 329 -572 24 -138 24
-422 0 -560 -34 -186 -91 -335 -171 -444 -49 -67 -94 -99 -173 -127 -45 -16
-59 -16 -98 -6 -162 44 -293 259 -350 577 -25 138 -25 422 0 560 72 400 269
643 463 572z"/>
</g>
</svg>
