<?xml version="1.0" standalone="no"?>
<!DOCTYPE svg PUBLIC "-//W3C//DTD SVG 20010904//EN"
 "http://www.w3.org/TR/2001/REC-SVG-20010904/DTD/svg10.dtd">
<svg version="1.0" xmlns="http://www.w3.org/2000/svg"
 width="801.000000pt" height="495.000000pt" viewBox="0 0 801.000000 495.000000"
 preserveAspectRatio="xMidYMid meet">
<metadata>
Created by potrace 1.11, written by Peter Selinger 2001-2013
</metadata>
<g transform="translate(0.000000,495.000000) scale(0.100000,-0.100000)"
fill="#000000" stroke="none">
<path d="M3894 4690 c-55 -17 -127 -73 -157 -121 -19 -32 -37 -86 -55 -170
-37 -171 -37 -368 0 -510 l25 -96 -56 -18 c-77 -24 -203 -88 -281 -143 -64
-45 -220 -197 -220 -213 0 -19 -48 -8 -92 20 -99 63 -163 137 -284 330 -72
116 -176 226 -221 236 -52 11 -87 -3 -136 -50 -74 -74 -91 -119 -94 -265 -4
-141 -11 -123 94 -272 57 -82 83 -110 125 -135 91 -53 364 -193 379 -193 38
-1 39 -14 12 -116 -24 -90 -27 -116 -27 -289 -1 -177 1 -197 27 -295 15 -58
46 -149 67 -204 22 -54 40 -100 40 -102 0 -2 -26 -21 -57 -43 -83 -56 -185
-148 -231 -207 -22 -28 -66 -78 -97 -110 -74 -76 -85 -104 -85 -206 0 -100 19
-147 80 -201 109 -99 223 -88 311 30 92 123 147 213 153 253 7 46 74 220 85
220 3 0 34 -33 68 -74 123 -147 327 -283 485 -322 59 -14 68 -20 77 -47 25
-70 10 -139 -64 -292 -40 -83 -51 -97 -137 -170 -87 -75 -91 -80 -65 -83 44
-5 184 35 245 70 75 43 179 149 219 223 17 33 39 96 47 140 26 131 39 152 104
171 132 38 259 121 379 248 l81 86 7 -33 c4 -17 22 -71 41 -120 20 -48 41
-116 49 -151 15 -76 64 -142 133 -183 37 -22 52 -25 106 -21 81 5 170 48 204
98 22 33 23 42 20 155 -4 135 -1 129 -112 290 -62 90 -122 150 -219 219 -66
46 -65 36 -18 166 35 100 76 256 91 355 24 150 8 374 -36 497 -14 41 -14 43 8
60 13 9 82 47 153 84 72 37 149 81 172 97 53 38 186 194 217 256 64 125 64
322 0 419 -40 61 -124 78 -201 41 -58 -28 -112 -91 -227 -263 -76 -114 -119
-166 -198 -241 l-101 -96 -74 79 c-118 129 -303 254 -432 293 -29 8 -41 18
-41 30 0 10 19 60 41 111 64 144 79 211 86 393 7 185 5 193 -81 283 -71 75
-132 104 -226 108 -41 2 -89 -1 -106 -6z m218 -29 c56 -27 142 -111 171 -166
18 -37 19 -51 13 -185 -8 -185 -20 -236 -87 -392 -43 -102 -57 -127 -71 -123
-78 25 -229 31 -340 14 -57 -9 -72 -8 -79 3 -5 7 -18 54 -30 103 -33 132 -31
308 4 474 17 85 34 138 54 170 30 48 102 104 157 121 50 15 155 5 208 -19z
m1315 -694 c78 -86 84 -294 12 -431 -35 -67 -171 -219 -226 -254 -51 -31 -301
-165 -318 -170 -6 -1 -27 32 -47 75 -21 43 -55 105 -77 138 l-40 60 109 103
c77 73 124 127 160 185 164 262 249 344 350 334 35 -4 51 -13 77 -40z m-2872
23 c45 -17 126 -102 187 -195 32 -49 58 -93 58 -98 0 -5 34 -51 75 -102 75
-93 175 -180 221 -191 31 -8 30 -16 -6 -69 -17 -25 -51 -87 -77 -140 -40 -83
-49 -95 -71 -95 -24 0 -366 171 -424 211 -14 11 -43 45 -64 76 -20 32 -55 82
-78 112 l-41 54 0 126 c0 111 3 132 23 173 29 57 77 113 117 133 35 18 45 18
80 5z m1590 -210 c392 -101 724 -486 785 -909 32 -214 -19 -510 -134 -784 -42
-100 -112 -231 -139 -259 -6 -7 -24 -31 -38 -53 -35 -54 -132 -152 -199 -202
-75 -56 -181 -108 -276 -134 -105 -29 -288 -32 -384 -6 -335 92 -646 432 -783
857 -52 160 -62 226 -61 405 0 159 17 267 55 360 7 17 14 38 16 48 6 31 93
199 130 252 167 235 402 391 661 440 101 19 262 13 367 -15z m-1064 -1767 c18
-32 50 -83 70 -115 l38 -56 -39 -94 c-21 -52 -42 -114 -46 -138 -7 -41 -82
-164 -166 -272 -32 -41 -100 -78 -144 -78 -73 1 -182 90 -203 166 -15 56 -13
159 4 200 13 32 91 122 228 264 44 46 209 180 222 180 2 0 18 -26 36 -57z
m1787 -5 c94 -69 150 -127 216 -223 102 -147 101 -143 101 -283 l0 -123 -36
-33 c-43 -40 -134 -76 -190 -76 -92 0 -191 93 -214 203 -7 34 -29 102 -49 151
-52 129 -50 152 15 266 30 52 61 110 68 128 7 17 18 32 23 32 5 0 35 -19 66
-42z m-773 -615 c-4 -10 -16 -56 -27 -103 -28 -126 -69 -202 -153 -286 -82
-82 -164 -127 -270 -149 -38 -8 -71 -13 -72 -11 -2 1 35 38 82 81 92 83 119
126 170 265 22 62 26 87 22 142 l-4 67 96 4 c53 1 111 4 130 5 28 2 32 -1 26
-15z"/>
<path d="M3850 3635 c-357 -72 -634 -379 -691 -766 -31 -217 46 -642 158 -863
135 -266 358 -399 648 -383 271 14 497 174 644 456 193 371 184 853 -23 1216
-55 97 -189 229 -283 278 -138 72 -296 94 -453 62z m340 -28 c106 -36 163 -71
247 -151 195 -185 295 -454 294 -791 0 -160 -18 -279 -61 -407 -103 -307 -301
-523 -550 -599 -90 -28 -270 -33 -360 -10 -288 73 -465 311 -554 743 -51 247
-56 382 -21 546 72 344 340 617 675 688 96 20 238 12 330 -19z"/>
</g>
</svg>
